<svg width="1504" height="258" viewBox="0 0 1504 258" fill="white" xmlns="http://www.w3.org/2000/svg">
<g clip-path="url(#clip0_1_3)" filter="url(#filter0_d_1_3)">
<path d="M143.007 267.064H76.9798L67.1877 297H2L74.4619 98.9189H146.084L218.266 297H152.799L143.007 267.064ZM127.899 220.342L109.993 165.226L92.0877 220.342H127.899ZM422.345 297H360.235L294.488 197.4V297H232.378V98.9189H294.488L360.235 200.198V98.9189H422.345V297ZM511.117 98.9189V210.549C511.117 219.689 513.076 226.963 516.992 232.372C521.096 237.594 527.624 240.206 536.577 240.206C545.53 240.206 552.151 237.594 556.441 232.372C560.731 226.963 562.876 219.689 562.876 210.549V98.9189H624.706V210.549C624.706 229.388 620.789 245.521 612.955 258.951C605.122 272.193 594.397 282.172 580.781 288.887C567.165 295.601 551.964 298.958 535.178 298.958C518.391 298.958 503.47 295.601 490.414 288.887C477.544 282.172 467.472 272.193 460.198 258.951C452.924 245.708 449.287 229.574 449.287 210.549V98.9189H511.117ZM784.108 195.441C796.045 198.239 805.278 204.021 811.806 212.788C818.521 221.367 821.878 231.346 821.878 242.724C821.878 260.07 816.096 273.499 804.532 283.011C793.154 292.337 776.741 297 755.291 297H651.495V98.9189H752.493C772.637 98.9189 788.491 103.302 800.055 112.068C811.619 120.835 817.401 133.611 817.401 150.398C817.401 161.962 814.324 171.754 808.169 179.774C802.2 187.608 794.18 192.83 784.108 195.441ZM713.605 176.137H737.665C743.261 176.137 747.364 175.018 749.975 172.78C752.773 170.541 754.172 167.091 754.172 162.428C754.172 157.579 752.773 154.035 749.975 151.796C747.364 149.372 743.261 148.159 737.665 148.159H713.605V176.137ZM741.862 247.2C747.458 247.2 751.561 246.174 754.172 244.122C756.97 241.884 758.369 238.34 758.369 233.491C758.369 223.979 752.867 219.222 741.862 219.222H713.605V247.2H741.862ZM1026 98.9189V297H963.89V219.782H904.857V297H842.747V98.9189H904.857V170.262H963.89V98.9189H1026ZM1114.66 98.9189V210.549C1114.66 219.689 1116.61 226.963 1120.53 232.372C1124.63 237.594 1131.16 240.206 1140.12 240.206C1149.07 240.206 1155.69 237.594 1159.98 232.372C1164.27 226.963 1166.41 219.689 1166.41 210.549V98.9189H1228.25V210.549C1228.25 229.388 1224.33 245.521 1216.49 258.951C1208.66 272.193 1197.94 282.172 1184.32 288.887C1170.7 295.601 1155.5 298.958 1138.72 298.958C1121.93 298.958 1107.01 295.601 1093.95 288.887C1081.08 282.172 1071.01 272.193 1063.74 258.951C1056.46 245.708 1052.83 229.574 1052.83 210.549V98.9189H1114.66ZM1410.59 98.9189V148.159H1357.99V297H1295.88V148.159H1243.84V98.9189H1410.59ZM1489.54 98.9189V297H1427.43V98.9189H1489.54Z"/>
</g>
<defs>
<filter id="filter0_d_1_3" x="0" y="0" width="1508" height="258" filterUnits="userSpaceOnUse" color-interpolation-filters="sRGB">
<feFlood flood-opacity="0" result="BackgroundImageFix"/>
<feColorMatrix in="SourceAlpha" type="matrix" values="0 0 0 0 0 0 0 0 0 0 0 0 0 0 0 0 0 0 127 0" result="hardAlpha"/>
<feOffset dy="4"/>
<feGaussianBlur stdDeviation="2"/>
<feComposite in2="hardAlpha" operator="out"/>
<feColorMatrix type="matrix" values="0 0 0 0 0 0 0 0 0 0 0 0 0 0 0 0 0 0 0.25 0"/>
<feBlend mode="normal" in2="BackgroundImageFix" result="effect1_dropShadow_1_3"/>
<feBlend mode="normal" in="SourceGraphic" in2="effect1_dropShadow_1_3" result="shape"/>
</filter>
<clipPath id="clip0_1_3">
<rect width="1500" height="250" fill="white" transform="translate(4)"/>
</clipPath>
</defs>
</svg>
